<svg width="37" height="37" viewBox="0 0 37 37" fill="none" xmlns="http://www.w3.org/2000/svg">
<circle cx="17.9865" cy="19.0255" r="16.3322" fill="#67C15E"/>
<path d="M1.6543 35.3576L5.28366 26.2842L12.5424 31.7282L1.6543 35.3576Z" fill="#67C15E"/>
<path d="M12.3356 10.2605C12.6677 10.2696 13.0361 10.2878 13.3864 11.0644C13.6186 11.5816 14.0088 12.5343 14.3282 13.311C14.5768 13.9153 14.78 14.4125 14.8308 14.5142C14.947 14.7464 15.0196 15.0132 14.8671 15.3271L14.8163 15.4324C14.7131 15.6766 14.5723 15.9032 14.3989 16.1038L14.1394 16.4123C13.9852 16.601 13.8309 16.7861 13.7003 16.9168C13.4662 17.1491 13.2248 17.3995 13.4934 17.8641C13.762 18.3286 14.7056 19.8566 16.0975 21.0888C17.1155 22.0069 18.2836 22.7435 19.5508 23.2664C19.6779 23.3208 19.7807 23.3668 19.8593 23.4043C20.3257 23.6366 20.6033 23.6003 20.8719 23.2882C21.1423 22.9742 22.0388 21.929 22.3545 21.4644C22.6594 20.9998 22.9715 21.0724 23.4034 21.2321C23.8353 21.3936 26.1327 22.5205 26.5991 22.751L26.8586 22.878C27.1834 23.0323 27.403 23.1393 27.4973 23.2954C27.6135 23.4932 27.6135 24.4205 27.2288 25.513C26.8332 26.6018 24.9296 27.647 24.0676 27.7269L23.8226 27.7559C23.0314 27.8503 22.0297 27.9737 18.4584 26.5673C14.056 24.8361 11.1507 20.5425 10.5645 19.6733L10.4683 19.5354L10.4575 19.5209C10.1907 19.1634 8.55566 16.9767 8.55566 14.7192C8.55566 12.5597 9.62088 11.4346 10.1054 10.9229L10.1907 10.8322C10.3475 10.655 10.5391 10.512 10.7536 10.4121C10.9681 10.3122 11.2009 10.2575 11.4374 10.2515C11.7513 10.2515 12.0671 10.2515 12.3356 10.2605Z" fill="white"/>
<path fill-rule="evenodd" clip-rule="evenodd" d="M0.173656 35.9582C0.139461 36.0812 0.138323 36.211 0.170355 36.3346C0.202387 36.4582 0.266456 36.5712 0.356096 36.6621C0.445737 36.7531 0.557777 36.8187 0.68091 36.8525C0.804042 36.8863 0.93391 36.887 1.05741 36.8546L9.41765 34.6697C12.0701 36.1064 15.039 36.8592 18.0555 36.86H18.0628C28.0182 36.86 36.1334 28.792 36.1334 18.8729C36.1395 16.5076 35.6752 14.1646 34.7673 11.9804C33.8595 9.79618 32.5264 7.81432 30.8454 6.15016C29.1674 4.47233 27.1742 3.14282 24.9804 2.23811C22.7867 1.3334 20.4358 0.871334 18.0628 0.8785C8.10745 0.8785 -0.0078125 8.94658 -0.0078125 18.8638C-0.0078125 22.0196 0.823313 25.119 2.40572 27.8538L0.173656 35.9582ZM5.03156 28.576C5.12751 28.2278 5.15318 27.8639 5.10707 27.5056C5.06096 27.1473 4.94399 26.8018 4.76299 26.4891C3.4222 24.1714 2.71557 21.5414 2.71421 18.8638C2.71421 10.4618 9.59731 3.60053 18.0628 3.60053C22.1821 3.60053 26.0256 5.192 28.9255 8.07917C30.3523 9.49046 31.4838 11.1717 32.254 13.0249C33.0241 14.8781 33.4176 16.8661 33.4114 18.8729C33.4114 27.2749 26.5283 34.138 18.0628 34.138H18.0537C15.4908 34.1367 12.9687 33.4968 10.7152 32.2762C10.1078 31.9473 9.39807 31.8617 8.72989 32.0366L3.71773 33.345L5.03156 28.576Z" fill="#67C15E"/>
</svg>
